<svg width="46" height="39" viewBox="0 0 46 39" fill="none" xmlns="http://www.w3.org/2000/svg">
<path d="M42 0H4C1.79086 0 0 1.79086 0 4V34C0 36.2091 1.79086 38 4 38H42C44.2091 38 46 36.2091 46 34V4C46 1.79086 44.2091 0 42 0Z" fill="#282C38"/>
<path d="M32.231 12.001H13.769C13.565 12.001 13.3695 12.082 13.2252 12.2262C13.081 12.3704 13 12.566 13 12.77V25.847C13 26.2549 13.162 26.6461 13.4505 26.9345C13.7389 27.2229 14.1301 27.385 14.538 27.385H31.462C31.8699 27.385 32.2611 27.2229 32.5495 26.9345C32.838 26.6461 33 26.2549 33 25.847V12.77C33 12.566 32.919 12.3704 32.7748 12.2262C32.6306 12.082 32.4349 12.001 32.231 12.001ZM14.538 18.155H18.384V21.232H14.538V18.155ZM19.923 18.155H31.462V21.232H19.923V18.155ZM31.461 13.54V16.617H14.538V13.539L31.461 13.54ZM14.538 22.77H18.384V25.847H14.538V22.77ZM31.461 25.847H19.923V22.77H31.462L31.461 25.847Z" fill="#B2B9CD"/>
</svg>
