<svg xmlns="http://www.w3.org/2000/svg" width="24" height="24" viewBox="0 0 24 24" fill="none">
  <path opacity="0.2" d="M21 9.75V14.25C21 14.4489 20.921 14.6397 20.7803 14.7803C20.6397 14.921 20.4489 15 20.25 15H15V20.25C15 20.4489 14.921 20.6397 14.7803 20.7803C14.6397 20.921 14.4489 21 14.25 21H9.75C9.55109 21 9.36032 20.921 9.21967 20.7803C9.07902 20.6397 9 20.4489 9 20.25V15H3.75C3.55109 15 3.36032 14.921 3.21967 14.7803C3.07902 14.6397 3 14.4489 3 14.25V9.75C3 9.55109 3.07902 9.36032 3.21967 9.21967C3.36032 9.07902 3.55109 9 3.75 9H9V3.75C9 3.55109 9.07902 3.36032 9.21967 3.21967C9.36032 3.07902 9.55109 3 9.75 3H14.25C14.4489 3 14.6397 3.07902 14.7803 3.21967C14.921 3.36032 15 3.55109 15 3.75V9H20.25C20.4489 9 20.6397 9.07902 20.7803 9.21967C20.921 9.36032 21 9.55109 21 9.75Z" fill="#B2B9CD"/>
  <path d="M20.25 8.25H15.75V3.75C15.75 3.35218 15.592 2.97064 15.3107 2.68934C15.0294 2.40804 14.6478 2.25 14.25 2.25H9.75C9.35218 2.25 8.97064 2.40804 8.68934 2.68934C8.40804 2.97064 8.25 3.35218 8.25 3.75V8.25H3.75C3.35218 8.25 2.97064 8.40804 2.68934 8.68934C2.40804 8.97064 2.25 9.35218 2.25 9.75V14.25C2.25 14.6478 2.40804 15.0294 2.68934 15.3107C2.97064 15.592 3.35218 15.75 3.75 15.75H8.25V20.25C8.25 20.6478 8.40804 21.0294 8.68934 21.3107C8.97064 21.592 9.35218 21.75 9.75 21.75H14.25C14.6478 21.75 15.0294 21.592 15.3107 21.3107C15.592 21.0294 15.75 20.6478 15.75 20.25V15.75H20.25C20.6478 15.75 21.0294 15.592 21.3107 15.3107C21.592 15.0294 21.75 14.6478 21.75 14.25V9.75C21.75 9.35218 21.592 8.97064 21.3107 8.68934C21.0294 8.40804 20.6478 8.25 20.25 8.25ZM20.25 14.25H15C14.8011 14.25 14.6103 14.329 14.4697 14.4697C14.329 14.6103 14.25 14.8011 14.25 15V20.25H9.75V15C9.75 14.8011 9.67098 14.6103 9.53033 14.4697C9.38968 14.329 9.19891 14.25 9 14.25H3.75V9.75H9C9.19891 9.75 9.38968 9.67098 9.53033 9.53033C9.67098 9.38968 9.75 9.19891 9.75 9V3.75H14.25V9C14.25 9.19891 14.329 9.38968 14.4697 9.53033C14.6103 9.67098 14.8011 9.75 15 9.75H20.25V14.25Z" fill="#B2B9CD"/>
</svg>