<svg xmlns="http://www.w3.org/2000/svg" width="24" height="24" viewBox="0 0 24 24" fill="none">
  <g clip-path="url(#clip0_2553_7403)">
    <path d="M7.56517 10.7773C7.56517 10.265 7.56517 9.75258 7.56517 9.2402C7.56517 8.17581 7.56517 7.10859 7.56517 6.0442C7.56517 5.11853 7.56517 4.19002 7.56517 3.26434C7.56517 3.06901 7.56517 2.87369 7.56517 2.67836C7.56234 1.82912 7.06411 1.04498 6.27714 0.713774C5.89781 0.555248 5.48168 0.481647 5.08537 0.382568C4.62961 0.269335 4.17385 0.156103 3.71809 0.0428699C3.68978 0.0343775 3.65864 0.0287158 3.63033 0.0202233C3.27082 -0.0675321 2.84619 0.136287 2.75844 0.515617C2.67634 0.880792 2.86884 1.29126 3.25383 1.38751C4.02098 1.57717 4.78813 1.76684 5.55529 1.95933C5.62606 1.97632 5.694 1.99897 5.76477 2.02161C5.83554 2.04426 5.67984 1.98481 5.6855 1.98764C5.70249 2.0018 5.73363 2.01029 5.75344 2.02161C5.79307 2.04143 5.82988 2.06691 5.86951 2.08955C5.99406 2.17165 5.77609 2.0018 5.86385 2.08106C5.90065 2.11503 5.93745 2.149 5.97425 2.1858C5.99123 2.20562 6.09597 2.33017 6.01671 2.22826C5.93745 2.12918 6.03086 2.25657 6.04785 2.28205C6.07333 2.32451 6.09031 2.3783 6.11862 2.4151C6.12145 2.42076 6.062 2.26506 6.08465 2.333C6.09597 2.36414 6.1073 2.39245 6.11579 2.42359C6.12994 2.46605 6.14127 2.51134 6.14976 2.55381C6.1809 2.70667 6.1441 2.4151 6.14976 2.53965C6.15259 2.57928 6.15542 2.61891 6.15542 2.66138C6.15825 2.8199 6.15542 2.97843 6.15542 3.13412C6.15542 4.00602 6.15542 4.87791 6.15542 5.7498C6.15542 6.81985 6.15542 7.88707 6.15542 8.95712C6.15542 9.55442 6.1441 10.1517 6.15542 10.749C6.15542 10.7575 6.15542 10.766 6.15542 10.7773C6.15542 11.1482 6.48096 11.502 6.86312 11.485C7.24245 11.4681 7.56517 11.1736 7.56517 10.7773Z" fill="#B2B9CD"/>
    <path d="M14.3987 16.6289C14.3987 16.7507 14.3959 16.8752 14.3874 16.9969C14.3846 17.062 14.3789 17.1272 14.3732 17.1923C14.3704 17.2319 14.3647 17.2687 14.3619 17.3083C14.3563 17.3649 14.3195 17.5489 14.3619 17.314C14.3081 17.5914 14.2657 17.866 14.1864 18.1406C14.1524 18.2623 14.1128 18.3812 14.0703 18.5029C14.0449 18.5737 14.0194 18.6445 13.9911 18.7152C13.9826 18.7379 13.9713 18.7605 13.9628 18.786C13.9175 18.9021 14.0392 18.6162 13.9599 18.7888C13.8495 19.038 13.7222 19.2814 13.5778 19.5135C13.507 19.6296 13.4306 19.7428 13.3513 19.8532C13.3145 19.9042 13.2777 19.9523 13.2409 20.0033C13.156 20.1165 13.3485 19.8674 13.2607 19.9778C13.2381 20.0061 13.2154 20.0344 13.19 20.0655C13.0173 20.275 12.8304 20.4732 12.6323 20.66C12.5332 20.7534 12.4313 20.8412 12.3266 20.9289C12.2982 20.9516 12.2699 20.9742 12.2388 20.9997C12.151 21.0705 12.2898 20.9601 12.2954 20.9573C12.2246 21.0054 12.1567 21.062 12.0859 21.1101C11.8623 21.2658 11.6273 21.4074 11.3867 21.5319C11.2763 21.5885 11.1631 21.6423 11.0499 21.6933C11.0046 21.7131 10.8743 21.7555 11.081 21.6819C11.047 21.6933 11.0102 21.7103 10.9763 21.7244C10.9055 21.7527 10.8347 21.7782 10.7639 21.8037C10.5007 21.8971 10.2318 21.9707 9.95716 22.0273C9.89488 22.0415 9.82978 22.0528 9.7675 22.0641C9.70805 22.0754 9.43346 22.1037 9.68823 22.0783C9.54669 22.0924 9.40232 22.1094 9.26078 22.1179C8.97204 22.1349 8.68046 22.132 8.38889 22.1066C8.30963 22.1009 8.23319 22.0924 8.15393 22.0839C8.03787 22.0726 8.21904 22.0924 8.22753 22.0952C8.19073 22.0868 8.1511 22.0839 8.11147 22.0783C7.9586 22.0528 7.80857 22.0245 7.65854 21.9877C7.38678 21.9226 7.12068 21.8405 6.86025 21.7414C6.80646 21.7216 6.60264 21.6253 6.82062 21.7272C6.764 21.7018 6.70455 21.6763 6.64794 21.6508C6.51206 21.5885 6.37901 21.5206 6.24879 21.447C6.011 21.3139 5.78171 21.1667 5.5609 21.0025C5.52127 20.9714 5.42219 20.8837 5.58638 21.0224C5.56656 21.0054 5.54675 20.9912 5.52693 20.9771C5.47032 20.9318 5.41087 20.8837 5.35708 20.8355C5.25517 20.7478 5.15326 20.6544 5.05702 20.5609C4.96077 20.4647 4.86735 20.3684 4.77676 20.2665C4.7343 20.2212 4.69467 20.1731 4.65504 20.1278C4.63239 20.0995 4.60692 20.0712 4.58427 20.0429C4.56728 20.0231 4.46538 19.8929 4.54747 19.9976C4.62673 20.0995 4.54747 19.9976 4.53615 19.9806C4.5135 19.9495 4.49085 19.9212 4.47104 19.89C4.43424 19.8391 4.40027 19.7881 4.3663 19.7372C4.2842 19.6126 4.20494 19.4881 4.13134 19.3578C4.06906 19.2503 4.00961 19.1399 3.95583 19.0295C3.92186 18.9615 3.89072 18.8936 3.85958 18.8256C3.84826 18.803 3.83976 18.7804 3.82844 18.7577C3.77749 18.6445 3.89921 18.9304 3.82844 18.752C3.72653 18.4944 3.63878 18.2283 3.57084 17.9594C3.53687 17.8235 3.50856 17.6848 3.48308 17.5461C3.47176 17.4838 3.46327 17.4187 3.45194 17.3536C3.4293 17.2092 3.47176 17.5348 3.4576 17.3876C3.45477 17.348 3.44911 17.3112 3.44345 17.2715C3.41231 16.9715 3.40382 16.6686 3.41797 16.3657C3.4208 16.2751 3.42646 16.1845 3.43496 16.0939C3.44062 16.0231 3.4661 15.9382 3.4576 15.8703C3.45194 15.9042 3.44911 15.9354 3.44345 15.9694C3.44628 15.941 3.45194 15.9099 3.4576 15.8816C3.46327 15.8533 3.4661 15.8221 3.47176 15.7938C3.48874 15.7004 3.50573 15.6042 3.52554 15.5108C3.59631 15.1909 3.68973 14.8738 3.80863 14.5681C3.81995 14.5398 3.83127 14.5143 3.83976 14.4888C3.89921 14.3445 3.77182 14.6417 3.83693 14.4973C3.86807 14.4322 3.89638 14.3671 3.92752 14.302C4.00112 14.1463 4.08321 13.9963 4.17097 13.8462C4.2474 13.716 4.3295 13.5915 4.41442 13.4669C4.45971 13.4018 4.50501 13.3395 4.55313 13.2772C4.64089 13.1583 4.47104 13.3792 4.53331 13.3027C4.56445 13.2631 4.59559 13.2263 4.62673 13.1867C4.82489 12.946 5.04286 12.7196 5.27782 12.5129C5.3401 12.4591 5.40238 12.4054 5.46465 12.3516C5.49579 12.3261 5.52693 12.2921 5.56373 12.2723C5.40804 12.3657 5.54958 12.2836 5.58072 12.261C5.73075 12.1506 5.88361 12.0487 6.04214 11.9496C6.20067 11.8533 6.36485 11.7628 6.53187 11.6807C6.6083 11.6439 6.68474 11.6071 6.76117 11.5731C6.92252 11.4995 6.6083 11.6297 6.78381 11.5646C6.84326 11.542 6.90271 11.5193 6.96216 11.4967C7.33582 11.3608 7.72082 11.2589 8.11147 11.1994C8.14261 11.1938 8.17941 11.1853 8.21338 11.1853C8.01805 11.1938 8.19073 11.1881 8.23036 11.1853C8.31529 11.1768 8.40304 11.1683 8.4908 11.1626C8.69745 11.1485 8.90127 11.1456 9.10792 11.1513C9.27494 11.157 9.43912 11.1683 9.60331 11.1881C9.6571 11.1938 9.75617 11.2249 9.56934 11.1824C9.6118 11.1938 9.6571 11.1966 9.70239 11.2023C9.79014 11.2164 9.8779 11.2334 9.96282 11.2504C10.277 11.3155 10.5856 11.4032 10.8857 11.5165C10.9253 11.5306 10.9678 11.5476 11.0074 11.5646C11.0244 11.5703 11.1574 11.624 11.0414 11.5788C10.9253 11.5335 11.0584 11.5872 11.0753 11.5957C11.115 11.6127 11.1546 11.6325 11.1914 11.6495C11.3329 11.7175 11.4717 11.7882 11.6104 11.8675C11.7462 11.9439 11.8793 12.0289 12.0095 12.1166C12.069 12.1562 12.1256 12.1959 12.185 12.2383C12.2162 12.261 12.253 12.2978 12.2869 12.3148C12.1992 12.2468 12.185 12.2355 12.2445 12.2836C12.2614 12.2978 12.2784 12.3091 12.2954 12.3233C12.5445 12.5242 12.7767 12.7422 12.989 12.9772C13.0852 13.0819 13.1758 13.1923 13.2636 13.2999C13.3598 13.4188 13.1673 13.1668 13.2579 13.2914C13.2862 13.331 13.3173 13.3707 13.3457 13.4103C13.4051 13.4952 13.4645 13.5801 13.5183 13.6679C13.6146 13.8179 13.7023 13.9708 13.7844 14.1265C13.8269 14.2086 13.8694 14.2907 13.909 14.3756C13.926 14.4152 13.9458 14.452 13.9628 14.4917C13.9741 14.5143 13.9826 14.537 13.9939 14.5624C13.9543 14.4718 13.9514 14.4605 13.9798 14.5341C14.1128 14.888 14.226 15.2418 14.2996 15.6127C14.3195 15.7061 14.3336 15.8023 14.3506 15.8958C14.3704 16.0062 14.3308 15.7174 14.3506 15.8901C14.3563 15.9439 14.3619 15.9977 14.3676 16.0486C14.3902 16.2326 14.3987 16.4308 14.3987 16.6289C14.4015 16.9998 14.7243 17.3536 15.1064 17.3366C15.4886 17.3197 15.817 17.0252 15.8141 16.6289C15.8056 14.9021 15.1574 13.2376 13.9939 11.9581C13.0428 10.9107 11.7349 10.1577 10.345 9.87177C8.66065 9.52641 6.88289 9.79817 5.39671 10.6757C4.06623 11.4627 3.06129 12.6714 2.48097 14.0982C1.45338 16.6148 2.11863 19.6183 4.03509 21.5234C5.87229 23.3493 8.69179 24.0202 11.1433 23.1596C12.3322 22.7435 13.4221 22.0131 14.2175 21.0337C15.0611 19.9976 15.582 18.786 15.7547 17.4612C15.7915 17.1838 15.8113 16.9035 15.8113 16.6261C15.8113 16.2553 15.4858 15.9014 15.1036 15.9184C14.7243 15.9382 14.3987 16.2326 14.3987 16.6289Z" fill="#B2B9CD"/>
    <path d="M19.1034 13.9002C19.1034 14.5569 19.1034 15.2165 19.1034 15.8732C19.3384 15.6383 19.5761 15.4005 19.8111 15.1655C18.4212 15.1655 17.0312 15.1655 15.6413 15.1655C15.4488 15.1655 15.2535 15.1655 15.061 15.1655C15.2959 15.4005 15.5337 15.6383 15.7687 15.8732C15.6215 14.6928 15.2195 13.5605 14.509 12.5952C14.3052 12.949 14.1013 13.3057 13.8975 13.6595C14.5741 13.6595 15.2535 13.6595 15.9301 13.6595C16.8416 13.6595 17.7531 13.6595 18.6646 13.6595C18.7439 13.6595 18.8203 13.6624 18.8996 13.6595C18.9562 13.6595 18.9987 13.6935 18.826 13.6454C18.8515 13.6511 18.8769 13.6539 18.8996 13.6595C18.9251 13.6652 18.9477 13.6737 18.9703 13.6794C19.0609 13.702 18.9194 13.6652 18.9052 13.6482C18.9364 13.6765 18.9958 13.6992 19.0326 13.7218C19.126 13.7756 18.9817 13.6879 18.976 13.6765C18.9845 13.6935 19.0156 13.7133 19.0298 13.7247C19.0383 13.7332 19.0666 13.77 19.0779 13.7784C19.044 13.7615 18.9845 13.6341 19.044 13.7388C19.0609 13.7671 19.1345 13.92 19.0864 13.8011C19.0355 13.6822 19.0949 13.8464 19.1034 13.8747C19.1062 13.8917 19.1091 13.9115 19.1147 13.9313C19.0666 13.7586 19.1034 13.8266 19.1034 13.9002C19.1119 14.271 19.4233 14.6249 19.8111 14.6079C20.1876 14.5909 20.5273 14.2965 20.5188 13.9002C20.499 12.966 19.7488 12.247 18.8203 12.2441C18.5089 12.2441 18.2004 12.2441 17.889 12.2441C16.8331 12.2441 15.7744 12.2441 14.7185 12.2441C14.4467 12.2441 14.1721 12.2441 13.9004 12.2441C13.6512 12.2441 13.4163 12.38 13.2889 12.5952C13.17 12.7961 13.1445 13.1104 13.2889 13.3085C13.4389 13.5152 13.5805 13.7275 13.705 13.9511C13.7701 14.07 13.8324 14.1889 13.8919 14.3106C13.9145 14.3559 13.9343 14.4012 13.957 14.4493C13.9711 14.4805 13.9853 14.5116 13.9966 14.5428C13.957 14.4522 13.9541 14.4409 13.9824 14.5145C14.073 14.7522 14.158 14.9929 14.2231 15.2391C14.2542 15.3552 14.2797 15.4741 14.3052 15.593C14.3193 15.6609 14.3306 15.7289 14.342 15.7996C14.3476 15.8336 14.3533 15.8676 14.3589 15.9044C14.3448 15.8025 14.3448 15.794 14.3533 15.8732C14.3759 16.0601 14.4156 16.2384 14.5599 16.3743C14.6986 16.5017 14.8685 16.581 15.061 16.581C16.4509 16.581 17.8409 16.581 19.2308 16.581C19.4233 16.581 19.6186 16.581 19.8111 16.581C20.1933 16.581 20.5188 16.2554 20.5188 15.8732C20.5188 15.2165 20.5188 14.5569 20.5188 13.9002C20.5188 13.5293 20.1933 13.1755 19.8111 13.1925C19.4289 13.2094 19.1034 13.5039 19.1034 13.9002Z" fill="#B2B9CD"/>
    <path d="M6.86005 8.26048C7.52813 8.26048 8.19903 8.26048 8.86711 8.26048C10.1919 8.26048 11.5139 8.26048 12.8387 8.26048C13.8295 8.26048 14.8203 8.26048 15.8111 8.26048C15.8875 8.26048 15.964 8.26048 16.0376 8.26048C16.0404 8.26048 16.0461 8.26048 16.0489 8.26048C16.0885 8.26048 16.1282 8.26331 16.1678 8.26614C16.2301 8.26898 16.2499 8.30578 16.0942 8.25482C16.1282 8.26615 16.1706 8.26898 16.2074 8.27747C16.2555 8.28879 16.3037 8.30578 16.3518 8.31993C16.482 8.35673 16.2244 8.25482 16.3037 8.29728C16.3263 8.30861 16.349 8.3171 16.3716 8.32842C16.4197 8.3539 16.4679 8.38221 16.516 8.41335C16.5358 8.42467 16.5556 8.44449 16.5754 8.45581C16.4084 8.36805 16.4962 8.39353 16.5471 8.43883C16.5867 8.47563 16.6235 8.51809 16.6632 8.55772C16.7113 8.60584 16.7141 8.66529 16.6349 8.51526C16.6462 8.53507 16.666 8.55772 16.6773 8.5747C16.7056 8.61434 16.7311 8.6568 16.7538 8.70209C16.7679 8.7304 16.7792 8.75871 16.7934 8.78419C16.8274 8.84363 16.7339 8.60867 16.7764 8.75305C16.7934 8.80683 16.8104 8.86062 16.8217 8.91723C16.8274 8.94271 16.8302 8.96819 16.8359 8.99367C16.7906 8.80683 16.8217 8.86628 16.8245 8.92006C16.8245 8.96253 16.8274 9.00782 16.8302 9.05028C16.8302 9.19465 16.8302 9.33619 16.8302 9.48057C16.8302 10.6129 16.8302 11.7424 16.8302 12.8747C16.8302 12.903 16.8302 12.9313 16.8302 12.9568C16.8302 13.3276 17.1557 13.6815 17.5379 13.6645C17.9201 13.6475 18.2456 13.3531 18.2456 12.9568C18.2456 11.9066 18.2456 10.8563 18.2456 9.80611C18.2456 9.31355 18.2937 8.77569 18.1182 8.30861C17.7814 7.41407 16.9576 6.85074 16.0036 6.85074C15.1544 6.85074 14.3051 6.85074 13.4559 6.85074C12.0942 6.85074 10.7326 6.85074 9.37099 6.85074C8.55005 6.85074 7.72912 6.83941 6.90818 6.85074C6.89686 6.85074 6.8827 6.85074 6.87138 6.85074C6.50054 6.85074 6.14669 7.17628 6.16367 7.55844C6.16934 7.93494 6.46091 8.26048 6.86005 8.26048Z" fill="#B2B9CD"/>
    <path d="M22.7014 21.113C22.7014 21.1668 22.6957 21.2178 22.6929 21.2716C22.69 21.348 22.7042 21.1923 22.7042 21.1951C22.6985 21.2149 22.6957 21.2404 22.6929 21.2602C22.6815 21.3112 22.6702 21.3593 22.6561 21.4103C22.6476 21.4414 22.5853 21.5914 22.6334 21.4895C22.6844 21.3791 22.6108 21.5376 22.5966 21.5603C22.5768 21.5971 22.5542 21.6339 22.5315 21.6707C22.5202 21.6905 22.4183 21.8321 22.489 21.7386C22.5598 21.6452 22.4381 21.7924 22.4183 21.8122C22.39 21.8434 22.3588 21.8717 22.3249 21.9C22.3107 21.9141 22.2909 21.9255 22.2767 21.9425C22.3673 21.8377 22.3673 21.8773 22.3192 21.9085C22.2343 21.9651 22.1493 22.0132 22.0616 22.0585C21.9484 22.1151 22.1918 22.0189 22.0701 22.0529C22.022 22.067 21.9738 22.084 21.9229 22.0953C21.8804 22.1066 21.838 22.1123 21.7927 22.1236C21.6992 22.1434 21.9427 22.1123 21.8493 22.1151C21.8181 22.1151 21.7898 22.1208 21.7587 22.1208C21.7049 22.1236 21.6511 22.1236 21.6002 22.1208C21.5775 22.1208 21.5549 22.1151 21.5322 22.1151C21.4558 22.1123 21.6115 22.1265 21.6087 22.1265C21.5152 22.0953 21.4077 22.0812 21.3114 22.0529C21.1925 22.0161 21.4445 22.118 21.3001 22.05C21.2605 22.0302 21.2237 22.0104 21.1869 21.9906C21.1444 21.9651 21.1019 21.9368 21.0623 21.9113C21.0453 21.9 20.9831 21.8519 21.0651 21.9141C21.1614 21.9849 21.051 21.9 21.0397 21.8887C21.0085 21.8604 20.9774 21.8292 20.9491 21.8009C20.9293 21.7811 20.8217 21.648 20.8925 21.7443C20.9604 21.8349 20.8755 21.7188 20.8613 21.6962C20.8302 21.648 20.8019 21.5999 20.7764 21.549C20.7651 21.5263 20.7 21.3933 20.7481 21.4952C20.799 21.6028 20.7339 21.4442 20.7254 21.4159C20.7141 21.3735 20.7028 21.331 20.6943 21.2885C20.6886 21.2602 20.6858 21.2263 20.6773 21.2008C20.6886 21.2319 20.6915 21.3536 20.6858 21.2546C20.683 21.1951 20.6802 21.1328 20.6802 21.0734C20.6802 21.0423 20.7 20.8696 20.683 20.9885C20.6688 21.096 20.6802 21.0168 20.683 20.9941C20.6915 20.9573 20.6971 20.9234 20.7056 20.8866C20.717 20.8384 20.7339 20.7903 20.7481 20.7394C20.7821 20.629 20.7311 20.7733 20.7254 20.7875C20.7396 20.762 20.7481 20.7337 20.7622 20.7082C20.7877 20.6573 20.816 20.6063 20.8472 20.5582C20.8642 20.5327 20.9576 20.3997 20.8896 20.4902C20.8245 20.578 20.884 20.5016 20.901 20.4789C20.9236 20.4534 20.9491 20.428 20.9746 20.4025C20.8075 20.4704 20.6405 20.5412 20.4735 20.6091C20.6858 20.6091 20.8557 20.5072 21.0057 20.3714C21.034 20.3459 21.085 20.3119 21.1076 20.2808C21.085 20.3091 20.9944 20.36 21.0736 20.3091C21.1444 20.2638 21.2208 20.227 21.2916 20.1817C21.3652 20.1364 21.1274 20.2383 21.2718 20.1902C21.3086 20.1789 21.3454 20.1647 21.3822 20.1534C21.419 20.1421 21.4586 20.1336 21.4954 20.1222C21.5181 20.1166 21.6681 20.0996 21.5605 20.1081C21.4501 20.1166 21.6058 20.1081 21.6285 20.1081C21.6709 20.1081 21.7162 20.1081 21.7587 20.1081C21.7842 20.1081 21.8606 20.0996 21.8833 20.1166C21.7842 20.1024 21.7615 20.0996 21.8153 20.1109C21.838 20.1166 21.8634 20.1194 21.8861 20.1251C21.954 20.1421 22.0389 20.1902 22.1069 20.193C22.0531 20.1902 21.9767 20.1336 22.0842 20.1845C22.1182 20.2015 22.1522 20.2185 22.1833 20.2383C22.2145 20.2581 22.2484 20.2779 22.2796 20.2977C22.407 20.3827 22.2569 20.2893 22.2626 20.2808C22.2626 20.2836 22.3928 20.3997 22.407 20.411C22.4353 20.4393 22.4579 20.4704 22.4862 20.4987C22.5457 20.5582 22.407 20.3798 22.4777 20.4846C22.5202 20.5497 22.5626 20.6148 22.5966 20.6827C22.6079 20.7026 22.6164 20.7252 22.6278 20.745C22.6504 20.7931 22.6419 20.7733 22.6023 20.6827C22.6108 20.6827 22.6391 20.7847 22.6391 20.7931C22.6589 20.8611 22.6731 20.929 22.69 20.997C22.7099 21.0847 22.6844 20.8498 22.6872 20.9743C22.6985 21.0253 22.7014 21.0677 22.7014 21.113C22.707 21.4839 23.0241 21.8377 23.4091 21.8207C23.7884 21.8037 24.1224 21.5093 24.1168 21.113C24.1054 20.2072 23.5874 19.3155 22.7467 18.9333C21.8068 18.5058 20.7226 18.6729 19.9809 19.4004C20.148 19.3324 20.315 19.2617 20.482 19.1937C20.0602 19.1937 19.7488 19.6127 19.5676 19.9524C19.4035 20.2638 19.3157 20.5837 19.2817 20.9319C19.2195 21.5773 19.4601 22.2086 19.8677 22.7011C20.2782 23.1937 20.8868 23.4654 21.5152 23.5277C22.155 23.59 22.7778 23.355 23.2675 22.9559C23.8139 22.5114 24.1111 21.8122 24.1196 21.1159C24.1253 20.745 23.7912 20.3912 23.4119 20.4082C23.0212 20.4223 22.707 20.7167 22.7014 21.113Z" fill="#B2B9CD"/>
    <path d="M22.0279 19.4397C22.0279 18.8622 22.0279 18.2847 22.0279 17.7073C22.0279 17.4213 22.0279 17.1354 22.0279 16.8495C22.0279 16.255 21.759 15.7059 21.241 15.3916C20.8022 15.1255 20.3012 15.1652 19.8142 15.1652C19.4434 15.1652 19.0896 15.4907 19.1065 15.8729C19.1235 16.255 19.4179 16.5806 19.8142 16.5806C19.9501 16.5806 20.0888 16.5806 20.2247 16.5806C20.2842 16.5806 20.3464 16.5806 20.4059 16.5806C20.4342 16.5806 20.471 16.5891 20.4965 16.5834C20.3804 16.6089 20.3493 16.5551 20.4229 16.5749C20.454 16.5834 20.5956 16.6429 20.4823 16.5834C20.3634 16.5211 20.5474 16.6287 20.5757 16.6429C20.6522 16.6797 20.4455 16.5183 20.5333 16.6117C20.5503 16.6287 20.5672 16.6485 20.5842 16.6627C20.6833 16.7533 20.4993 16.5183 20.5644 16.6344C20.5757 16.657 20.5899 16.6768 20.6012 16.6966C20.6125 16.7165 20.672 16.8269 20.6125 16.7136C20.5531 16.6004 20.6125 16.7391 20.621 16.7731C20.6408 16.8467 20.5871 16.8155 20.6125 16.6995C20.6154 16.691 20.6154 16.7872 20.6154 16.7787C20.6154 16.7816 20.6154 16.7844 20.6154 16.7872C20.6154 16.8155 20.6154 16.8439 20.6154 16.8722C20.6154 17.5091 20.6154 18.146 20.6154 18.783C20.6154 19.0009 20.6154 19.2217 20.6154 19.4397C20.6154 19.8105 20.9409 20.1644 21.3231 20.1474C21.7024 20.1276 22.0279 19.836 22.0279 19.4397Z" fill="#B2B9CD"/>
    <path d="M25.2918 20.2266C24.6633 20.2266 24.032 20.2266 23.4036 20.2266C23.0328 20.2266 22.6789 20.5521 22.6959 20.9343C22.7129 21.3164 23.0073 21.642 23.4036 21.642C24.032 21.642 24.6633 21.642 25.2918 21.642C25.6626 21.642 26.0165 21.3164 25.9995 20.9343C25.9797 20.5521 25.6881 20.2266 25.2918 20.2266Z" fill="#B2B9CD"/>
    <path d="M9.15912 16.6284C9.15912 16.6567 9.15062 16.6935 9.15345 16.7218C9.17044 16.6171 9.17327 16.5916 9.16195 16.6454C9.15912 16.6596 9.15628 16.6737 9.15062 16.6879C9.14496 16.7134 9.10533 16.8039 9.15062 16.7077C9.19875 16.6086 9.15062 16.702 9.14213 16.7218C9.13647 16.7303 9.08268 16.8068 9.08551 16.8153C9.07702 16.8011 9.19309 16.6964 9.11665 16.7728C9.09684 16.7926 9.07702 16.8124 9.05437 16.8351C8.95813 16.9313 9.14496 16.7841 9.07702 16.8181C9.05154 16.8294 9.0289 16.8492 9.00342 16.8634C8.9921 16.8719 8.97794 16.8775 8.96379 16.8832C8.91567 16.9058 8.93831 16.8974 9.03173 16.8549C9.00908 16.8521 8.96662 16.8719 8.9468 16.8804C8.85339 16.9087 8.96945 16.869 9.00059 16.8775C8.97511 16.8719 8.93548 16.8832 8.90717 16.8832C8.89019 16.8832 8.74015 16.8719 8.86471 16.886C8.97511 16.8974 8.8732 16.8832 8.84773 16.8775C8.78262 16.8606 8.74865 16.8153 8.87037 16.8974C8.8364 16.8747 8.75714 16.8209 8.72034 16.8124C8.76563 16.8209 8.83357 16.9115 8.74582 16.8266C8.726 16.8068 8.70618 16.7841 8.68637 16.7643C8.62692 16.7105 8.75431 16.8775 8.71751 16.8039C8.70335 16.7728 8.68071 16.7417 8.66372 16.7105C8.6156 16.6228 8.6892 16.7332 8.68354 16.7586C8.68637 16.7417 8.66372 16.6907 8.65806 16.6737C8.62126 16.552 8.65806 16.7926 8.65806 16.7049C8.65806 16.6737 8.65523 16.6426 8.65523 16.6114C8.65523 16.5888 8.66372 16.4784 8.6524 16.5916C8.64108 16.7105 8.66089 16.5803 8.66655 16.5548C8.68354 16.4642 8.66372 16.569 8.64108 16.6001C8.65806 16.5775 8.66655 16.5463 8.68071 16.5209C8.69486 16.4982 8.77129 16.3963 8.69769 16.4841C8.62126 16.5775 8.71751 16.4671 8.726 16.4586C8.55898 16.5265 8.39196 16.5973 8.22495 16.6652C8.34384 16.6652 8.47972 16.6284 8.58163 16.569C8.56747 16.5775 8.7628 16.4416 8.79111 16.3991C8.7628 16.4473 8.67505 16.4784 8.77695 16.4189C8.91 16.3425 8.75714 16.4331 8.74865 16.4218C8.74865 16.4218 8.86188 16.3878 8.87886 16.3821C8.94397 16.3708 8.9468 16.368 8.88736 16.3793C8.82791 16.3878 8.83074 16.3878 8.89868 16.385C8.92699 16.3878 9.06004 16.3935 8.93831 16.3821C8.81659 16.3737 8.96662 16.3935 8.99493 16.402C9.11948 16.4416 8.99493 16.4246 8.96945 16.3878C8.97511 16.3935 9.07419 16.4529 9.08268 16.4557C9.05721 16.4359 9.03456 16.4161 9.00908 16.3991C9.03173 16.4189 9.05438 16.4388 9.07419 16.4586C9.09118 16.4756 9.10816 16.4982 9.12515 16.5152C9.17893 16.5718 9.05154 16.3906 9.10816 16.5039C9.11948 16.5237 9.13081 16.5463 9.14213 16.5661C9.16478 16.6143 9.15628 16.5945 9.11665 16.5095C9.11382 16.5152 9.14779 16.6313 9.15062 16.6397C9.14496 16.6058 9.14213 16.569 9.13647 16.535C9.15628 16.5633 9.15912 16.5945 9.15912 16.6284C9.16761 16.9993 9.479 17.3531 9.86682 17.3361C10.2433 17.3191 10.5858 17.0247 10.5745 16.6284C10.5575 15.9717 10.1839 15.3659 9.56958 15.1054C8.93548 14.8365 8.22778 14.9752 7.73238 15.4508C7.8994 15.3829 8.06642 15.3121 8.23344 15.2442C7.85977 15.2442 7.57386 15.564 7.42665 15.8783C7.3021 16.1415 7.2285 16.4274 7.25114 16.719C7.29644 17.2823 7.605 17.8315 8.12304 18.092C8.64108 18.3524 9.27518 18.3637 9.77623 18.0495C10.2716 17.7381 10.5632 17.2116 10.5774 16.6256C10.5858 16.2548 10.2461 15.9009 9.86965 15.9179C9.47334 15.9377 9.16761 16.2321 9.15912 16.6284Z" fill="#B2B9CD"/>
  </g>
  <defs>
    <clipPath id="clip0_2553_7403">
      <rect width="24" height="24" fill="white"/>
    </clipPath>
  </defs>
</svg>