<svg xmlns="http://www.w3.org/2000/svg" width="24" height="24" viewBox="0 0 24 24" fill="none">
  <path opacity="0.2" d="M21.75 14.25C21.75 14.8433 21.5741 15.4234 21.2444 15.9167C20.9148 16.4101 20.4462 16.7946 19.8981 17.0216C19.3499 17.2487 18.7467 17.3081 18.1647 17.1924C17.5828 17.0766 17.0482 16.7909 16.6287 16.3713C16.2091 15.9518 15.9234 15.4172 15.8076 14.8353C15.6919 14.2533 15.7513 13.6501 15.9784 13.102C16.2054 12.5538 16.5899 12.0852 17.0833 11.7556C17.5766 11.4259 18.1567 11.25 18.75 11.25C19.5457 11.25 20.3087 11.5661 20.8713 12.1287C21.4339 12.6913 21.75 13.4544 21.75 14.25Z" fill="#B2B9CD"/>
  <path d="M19.875 14.25C19.875 14.4725 19.809 14.69 19.6854 14.875C19.5618 15.06 19.3861 15.2042 19.1805 15.2894C18.975 15.3745 18.7488 15.3968 18.5305 15.3534C18.3123 15.31 18.1118 15.2028 17.9545 15.0455C17.7972 14.8882 17.69 14.6877 17.6466 14.4695C17.6032 14.2512 17.6255 14.025 17.7106 13.8195C17.7958 13.6139 17.94 13.4382 18.125 13.3146C18.31 13.191 18.5275 13.125 18.75 13.125C19.0484 13.125 19.3345 13.2435 19.5455 13.4545C19.7565 13.6655 19.875 13.9516 19.875 14.25ZM19.4484 17.9334C19.2837 18.9955 18.7449 19.9637 17.9293 20.6635C17.1136 21.3633 16.0747 21.7486 15 21.75H12.75C11.5569 21.7488 10.413 21.2743 9.56939 20.4306C8.72575 19.587 8.25124 18.4431 8.25 17.25V13.4522C6.80018 13.2695 5.46686 12.5641 4.50025 11.4682C3.53364 10.3723 3.00018 8.96128 3 7.5V3.75C3 3.35218 3.15804 2.97064 3.43934 2.68934C3.72064 2.40804 4.10218 2.25 4.5 2.25H6C6.19891 2.25 6.38968 2.32902 6.53033 2.46967C6.67098 2.61032 6.75 2.80109 6.75 3C6.75 3.19891 6.67098 3.38968 6.53033 3.53033C6.38968 3.67098 6.19891 3.75 6 3.75H4.5V7.5C4.49995 8.09603 4.6183 8.68614 4.84819 9.23605C5.07808 9.78596 5.41492 10.2847 5.83916 10.7034C6.2634 11.122 6.76658 11.4522 7.31949 11.6748C7.8724 11.8974 8.46402 12.0079 9.06 12C11.5078 11.9681 13.5 9.91406 13.5 7.42219V3.75H12C11.8011 3.75 11.6103 3.67098 11.4697 3.53033C11.329 3.38968 11.25 3.19891 11.25 3C11.25 2.80109 11.329 2.61032 11.4697 2.46967C11.6103 2.32902 11.8011 2.25 12 2.25H13.5C13.8978 2.25 14.2794 2.40804 14.5607 2.68934C14.842 2.97064 15 3.35218 15 3.75V7.42219C15 10.5009 12.7003 13.0744 9.75 13.4513V17.25C9.75 18.0456 10.0661 18.8087 10.6287 19.3713C11.1913 19.9339 11.9544 20.25 12.75 20.25H15C15.6813 20.2489 16.3419 20.0163 16.8737 19.5905C17.4055 19.1647 17.7769 18.5708 17.9269 17.9062C17.0211 17.7028 16.223 17.1706 15.687 16.4126C15.1509 15.6546 14.9151 14.7248 15.0252 13.803C15.1352 12.8812 15.5832 12.0329 16.2826 11.4224C16.9819 10.8119 17.8829 10.4825 18.8111 10.4979C19.7393 10.5134 20.6288 10.8726 21.3075 11.506C21.9862 12.1395 22.4057 13.0021 22.485 13.9271C22.5643 14.852 22.2977 15.7735 21.7368 16.5133C21.1759 17.253 20.3605 17.7583 19.4484 17.9316V17.9334ZM21 14.25C21 13.805 20.868 13.37 20.6208 13C20.3736 12.63 20.0222 12.3416 19.611 12.1713C19.1999 12.001 18.7475 11.9564 18.311 12.0432C17.8746 12.13 17.4737 12.3443 17.159 12.659C16.8443 12.9737 16.63 13.3746 16.5432 13.811C16.4564 14.2475 16.501 14.6999 16.6713 15.111C16.8416 15.5222 17.13 15.8736 17.5 16.1208C17.87 16.368 18.305 16.5 18.75 16.5C19.3467 16.5 19.919 16.2629 20.341 15.841C20.7629 15.419 21 14.8467 21 14.25Z" fill="#B2B9CD"/>
</svg>