<svg xmlns="http://www.w3.org/2000/svg" width="24" height="24" viewBox="0 0 24 24" fill="none">
  <path opacity="0.2" d="M12.75 2.99996V20.25H3.75V8.00152C3.74992 7.87801 3.78034 7.75639 3.83857 7.64747C3.89679 7.53855 3.98101 7.44569 4.08375 7.37714L11.5837 2.37746C11.6966 2.30217 11.8277 2.25889 11.9632 2.25224C12.0987 2.2456 12.2335 2.27582 12.3532 2.3397C12.4728 2.40357 12.5729 2.49871 12.6428 2.61498C12.7127 2.73125 12.7497 2.8643 12.75 2.99996Z" fill="#B2B9CD"/>
  <path d="M22.5 19.5H21V9C21 8.60217 20.842 8.22064 20.5607 7.93934C20.2794 7.65803 19.8978 7.5 19.5 7.5H13.5V3C13.5002 2.72837 13.4266 2.46179 13.2871 2.22872C13.1476 1.99564 12.9474 1.80482 12.708 1.67661C12.4685 1.54841 12.1987 1.48764 11.9274 1.50078C11.6561 1.51393 11.3935 1.60049 11.1675 1.75125L3.6675 6.75C3.46176 6.88727 3.29315 7.07328 3.17669 7.29148C3.06023 7.50968 2.99953 7.75329 3 8.00062V19.5H1.5C1.30109 19.5 1.11032 19.579 0.96967 19.7197C0.829018 19.8603 0.75 20.0511 0.75 20.25C0.75 20.4489 0.829018 20.6397 0.96967 20.7803C1.11032 20.921 1.30109 21 1.5 21H22.5C22.6989 21 22.8897 20.921 23.0303 20.7803C23.171 20.6397 23.25 20.4489 23.25 20.25C23.25 20.0511 23.171 19.8603 23.0303 19.7197C22.8897 19.579 22.6989 19.5 22.5 19.5ZM19.5 9V19.5H13.5V9H19.5ZM4.5 8.00062L12 3V19.5H4.5V8.00062ZM10.5 10.5V12C10.5 12.1989 10.421 12.3897 10.2803 12.5303C10.1397 12.671 9.94891 12.75 9.75 12.75C9.55109 12.75 9.36032 12.671 9.21967 12.5303C9.07902 12.3897 9 12.1989 9 12V10.5C9 10.3011 9.07902 10.1103 9.21967 9.96967C9.36032 9.82902 9.55109 9.75 9.75 9.75C9.94891 9.75 10.1397 9.82902 10.2803 9.96967C10.421 10.1103 10.5 10.3011 10.5 10.5ZM7.5 10.5V12C7.5 12.1989 7.42098 12.3897 7.28033 12.5303C7.13968 12.671 6.94891 12.75 6.75 12.75C6.55109 12.75 6.36032 12.671 6.21967 12.5303C6.07902 12.3897 6 12.1989 6 12V10.5C6 10.3011 6.07902 10.1103 6.21967 9.96967C6.36032 9.82902 6.55109 9.75 6.75 9.75C6.94891 9.75 7.13968 9.82902 7.28033 9.96967C7.42098 10.1103 7.5 10.3011 7.5 10.5ZM7.5 15.75V17.25C7.5 17.4489 7.42098 17.6397 7.28033 17.7803C7.13968 17.921 6.94891 18 6.75 18C6.55109 18 6.36032 17.921 6.21967 17.7803C6.07902 17.6397 6 17.4489 6 17.25V15.75C6 15.5511 6.07902 15.3603 6.21967 15.2197C6.36032 15.079 6.55109 15 6.75 15C6.94891 15 7.13968 15.079 7.28033 15.2197C7.42098 15.3603 7.5 15.5511 7.5 15.75ZM10.5 15.75V17.25C10.5 17.4489 10.421 17.6397 10.2803 17.7803C10.1397 17.921 9.94891 18 9.75 18C9.55109 18 9.36032 17.921 9.21967 17.7803C9.07902 17.6397 9 17.4489 9 17.25V15.75C9 15.5511 9.07902 15.3603 9.21967 15.2197C9.36032 15.079 9.55109 15 9.75 15C9.94891 15 10.1397 15.079 10.2803 15.2197C10.421 15.3603 10.5 15.5511 10.5 15.75Z" fill="#B2B9CD"/>
</svg>