<svg width="12" height="12" viewBox="0 0 12 12" fill="none" xmlns="http://www.w3.org/2000/svg">
<path d="M2.07881 0.91767C1.90299 0.741855 1.66454 0.643083 1.4159 0.643083C1.16726 0.643083 0.9288 0.741855 0.752984 0.91767C0.577169 1.09349 0.478397 1.33194 0.478397 1.58058C0.478397 1.82922 0.577169 2.06768 0.752984 2.2435L4.50949 6L0.752984 9.7565C0.577169 9.93232 0.478397 10.1708 0.478397 10.4194C0.478397 10.6681 0.577169 10.9065 0.752984 11.0823C0.9288 11.2581 1.16726 11.3569 1.4159 11.3569C1.66454 11.3569 1.90299 11.2581 2.07881 11.0823L5.83531 7.32583L9.59182 11.0823C9.76763 11.2581 10.0061 11.3569 10.2547 11.3569C10.5034 11.3569 10.7418 11.2581 10.9176 11.0823C11.0935 10.9065 11.1922 10.6681 11.1922 10.4194C11.1922 10.1708 11.0935 9.93232 10.9176 9.7565L7.16114 6L10.9176 2.2435C11.0935 2.06768 11.1922 1.82922 11.1922 1.58058C11.1922 1.33194 11.0935 1.09349 10.9176 0.91767C10.7418 0.741855 10.5034 0.643082 10.2547 0.643082C10.0061 0.643083 9.76763 0.741855 9.59182 0.91767L5.83531 4.67417L2.07881 0.91767Z" fill="white"/>
</svg>
