<svg width="15" height="15" viewBox="0 0 15 15" fill="none" xmlns="http://www.w3.org/2000/svg">
<g id="x 1">
<path id="Vector" d="M12.0504 11.3871C12.0939 11.4307 12.1285 11.4824 12.1521 11.5393C12.1756 11.5962 12.1878 11.6572 12.1878 11.7188C12.1878 11.7804 12.1756 11.8413 12.1521 11.8983C12.1285 11.9552 12.0939 12.0069 12.0504 12.0504C12.0068 12.094 11.9551 12.1285 11.8982 12.1521C11.8413 12.1756 11.7803 12.1878 11.7188 12.1878C11.6572 12.1878 11.5962 12.1756 11.5393 12.1521C11.4824 12.1285 11.4307 12.094 11.3871 12.0504L7.5 8.16271L3.61289 12.0504C3.52494 12.1384 3.40564 12.1878 3.28125 12.1878C3.15686 12.1878 3.03757 12.1384 2.94961 12.0504C2.86165 11.9625 2.81224 11.8432 2.81224 11.7188C2.81224 11.5944 2.86165 11.4751 2.94961 11.3871L6.83731 7.50002L2.94961 3.61291C2.86165 3.52495 2.81224 3.40566 2.81224 3.28127C2.81224 3.15688 2.86165 3.03758 2.94961 2.94963C3.03757 2.86167 3.15686 2.81226 3.28125 2.81226C3.40564 2.81226 3.52494 2.86167 3.61289 2.94963L7.5 6.83732L11.3871 2.94963C11.4751 2.86167 11.5944 2.81226 11.7188 2.81226C11.8431 2.81226 11.9624 2.86167 12.0504 2.94963C12.1383 3.03758 12.1878 3.15688 12.1878 3.28127C12.1878 3.40566 12.1383 3.52495 12.0504 3.61291L8.1627 7.50002L12.0504 11.3871Z" fill="white"/>
</g>
</svg>
