<svg width="36" height="36" viewBox="0 0 36 36" fill="none" xmlns="http://www.w3.org/2000/svg">
<rect opacity="0.2" x="0.0217285" y="0.5" width="35" height="35" rx="8" fill="#0ACEEC"/>
<path opacity="0.2" d="M25.2039 19.5C25.2039 19.9945 25.0572 20.4778 24.7825 20.8889C24.5078 21.3 24.1174 21.6205 23.6606 21.8097C23.2038 21.9989 22.7011 22.0484 22.2161 21.952C21.7312 21.8555 21.2857 21.6174 20.9361 21.2678C20.5865 20.9181 20.3484 20.4727 20.2519 19.9877C20.1554 19.5028 20.2049 19.0001 20.3942 18.5433C20.5834 18.0865 20.9038 17.696 21.3149 17.4213C21.7261 17.1466 22.2094 17 22.7039 17C23.3669 17 24.0028 17.2634 24.4716 17.7322C24.9405 18.2011 25.2039 18.837 25.2039 19.5Z" fill="#51CBFF"/>
<path d="M23.6414 19.5C23.6414 19.6854 23.5864 19.8667 23.4834 20.0208C23.3803 20.175 23.2339 20.2952 23.0626 20.3661C22.8913 20.4371 22.7028 20.4557 22.521 20.4195C22.3391 20.3833 22.1721 20.294 22.0409 20.1629C21.9098 20.0318 21.8205 19.8648 21.7844 19.6829C21.7482 19.501 21.7668 19.3125 21.8377 19.1412C21.9087 18.9699 22.0288 18.8235 22.183 18.7205C22.3372 18.6175 22.5184 18.5625 22.7039 18.5625C22.9525 18.5625 23.191 18.6613 23.3668 18.8371C23.5426 19.0129 23.6414 19.2514 23.6414 19.5ZM23.2859 22.5695C23.1486 23.4546 22.6996 24.2614 22.0199 24.8446C21.3402 25.4277 20.4745 25.7488 19.5789 25.75H17.7039C16.7096 25.749 15.7564 25.3535 15.0533 24.6505C14.3503 23.9475 13.9549 22.9942 13.9539 22V18.8352C12.7457 18.6829 11.6346 18.095 10.8291 17.1818C10.0236 16.2685 9.57901 15.0927 9.57886 13.875V10.75C9.57886 10.4185 9.71055 10.1005 9.94497 9.86612C10.1794 9.6317 10.4973 9.5 10.8289 9.5H12.0789C12.2446 9.5 12.4036 9.56585 12.5208 9.68306C12.638 9.80027 12.7039 9.95924 12.7039 10.125C12.7039 10.2908 12.638 10.4497 12.5208 10.5669C12.4036 10.6842 12.2446 10.75 12.0789 10.75H10.8289V13.875C10.8288 14.3717 10.9274 14.8634 11.119 15.3217C11.3106 15.78 11.5913 16.1956 11.9448 16.5445C12.2984 16.8934 12.7177 17.1685 13.1784 17.354C13.6392 17.5395 14.1322 17.6316 14.6289 17.625C16.6687 17.5984 18.3289 15.8867 18.3289 13.8102V10.75H17.0789C16.9131 10.75 16.7541 10.6842 16.6369 10.5669C16.5197 10.4497 16.4539 10.2908 16.4539 10.125C16.4539 9.95924 16.5197 9.80027 16.6369 9.68306C16.7541 9.56585 16.9131 9.5 17.0789 9.5H18.3289C18.6604 9.5 18.9783 9.6317 19.2127 9.86612C19.4472 10.1005 19.5789 10.4185 19.5789 10.75V13.8102C19.5789 16.3758 17.6625 18.5203 15.2039 18.8344V22C15.2039 22.663 15.4672 23.2989 15.9361 23.7678C16.4049 24.2366 17.0408 24.5 17.7039 24.5H19.5789C20.1466 24.4991 20.6971 24.3053 21.1403 23.9504C21.5835 23.5956 21.8929 23.1007 22.0179 22.5469C21.2631 22.3773 20.598 21.9338 20.1513 21.3022C19.7046 20.6705 19.5081 19.8957 19.5998 19.1275C19.6915 18.3593 20.0649 17.6525 20.6477 17.1437C21.2305 16.6349 21.9813 16.3604 22.7548 16.3733C23.5283 16.3861 24.2696 16.6855 24.8351 17.2134C25.4007 17.7412 25.7503 18.4601 25.8164 19.2309C25.8825 20.0017 25.6603 20.7696 25.1929 21.386C24.7254 22.0025 24.0459 22.4236 23.2859 22.568V22.5695ZM24.5789 19.5C24.5789 19.1292 24.4689 18.7666 24.2629 18.4583C24.0568 18.15 23.764 17.9096 23.4214 17.7677C23.0788 17.6258 22.7018 17.5887 22.3381 17.661C21.9743 17.7334 21.6403 17.912 21.378 18.1742C21.1158 18.4364 20.9372 18.7705 20.8649 19.1342C20.7925 19.4979 20.8297 19.8749 20.9716 20.2175C21.1135 20.5601 21.3538 20.853 21.6622 21.059C21.9705 21.265 22.333 21.375 22.7039 21.375C23.2011 21.375 23.6781 21.1775 24.0297 20.8258C24.3813 20.4742 24.5789 19.9973 24.5789 19.5Z" fill="#51CBFF"/>
</svg>
