<svg width="40" height="40" viewBox="0 0 40 40" fill="none" xmlns="http://www.w3.org/2000/svg">
<rect x="2" y="2" width="36" height="36" rx="18" fill="#282C38"/>
<path d="M28.25 14H23.75V11.75C23.75 11.5511 23.671 11.3603 23.5303 11.2197C23.3897 11.079 23.1989 11 23 11H17C16.8011 11 16.6103 11.079 16.4697 11.2197C16.329 11.3603 16.25 11.5511 16.25 11.75V14H11.75C11.3522 14 10.9706 14.158 10.6893 14.4393C10.408 14.7206 10.25 15.1022 10.25 15.5V24.5C10.25 24.8978 10.408 25.2794 10.6893 25.5607C10.9706 25.842 11.3522 26 11.75 26H16.25V28.25C16.25 28.4489 16.329 28.6397 16.4697 28.7803C16.6103 28.921 16.8011 29 17 29H23C23.1989 29 23.3897 28.921 23.5303 28.7803C23.671 28.6397 23.75 28.4489 23.75 28.25V26H28.25C28.6478 26 29.0294 25.842 29.3107 25.5607C29.592 25.2794 29.75 24.8978 29.75 24.5V15.5C29.75 15.1022 29.592 14.7206 29.3107 14.4393C29.0294 14.158 28.6478 14 28.25 14ZM17.75 12.5H22.25V14H17.75V12.5ZM22.25 27.5H17.75V23.75H22.25V27.5ZM28.25 24.5H23.75V23C23.75 22.8011 23.671 22.6103 23.5303 22.4697C23.3897 22.329 23.1989 22.25 23 22.25H17C16.8011 22.25 16.6103 22.329 16.4697 22.4697C16.329 22.6103 16.25 22.8011 16.25 23V24.5H11.75V15.5H28.25V24.5Z" fill="white"/>
<path d="M26.75 19.25C26.9489 19.25 27.1397 19.171 27.2803 19.0303C27.421 18.8897 27.5 18.6989 27.5 18.5V17C27.5 16.8011 27.421 16.6103 27.2803 16.4697C27.1397 16.329 26.9489 16.25 26.75 16.25C26.5511 16.25 26.3603 16.329 26.2197 16.4697C26.079 16.6103 26 16.8011 26 17V18.5C26 18.6989 26.079 18.8897 26.2197 19.0303C26.3603 19.171 26.5511 19.25 26.75 19.25Z" fill="white"/>
<rect x="2" y="2" width="36" height="36" rx="18" stroke="#282C38" stroke-width="4"/>
</svg>
