<svg width="36" height="36" viewBox="0 0 36 36" fill="none" xmlns="http://www.w3.org/2000/svg">
<rect opacity="0.2" x="0.0219727" y="0.5" width="35" height="35" rx="8" fill="#0ACEEC"/>
<g clip-path="url(#clip0_1027_14281)">
<path opacity="0.2" d="M26.7065 16.375V20.75H16.0815V13.875H24.2065C24.8696 13.875 25.5055 14.1384 25.9743 14.6072C26.4432 15.0761 26.7065 15.712 26.7065 16.375Z" fill="#0ACEEC"/>
<path d="M24.2065 13.25H9.83154V11.375C9.83154 11.2092 9.76569 11.0503 9.64848 10.9331C9.53127 10.8158 9.3723 10.75 9.20654 10.75C9.04078 10.75 8.88181 10.8158 8.7646 10.9331C8.64739 11.0503 8.58154 11.2092 8.58154 11.375V23.875C8.58154 24.0408 8.64739 24.1997 8.7646 24.3169C8.88181 24.4342 9.04078 24.5 9.20654 24.5C9.3723 24.5 9.53127 24.4342 9.64848 24.3169C9.76569 24.1997 9.83154 24.0408 9.83154 23.875V21.375H26.0815V23.875C26.0815 24.0408 26.1474 24.1997 26.2646 24.3169C26.3818 24.4342 26.5408 24.5 26.7065 24.5C26.8723 24.5 27.0313 24.4342 27.1485 24.3169C27.2657 24.1997 27.3315 24.0408 27.3315 23.875V16.375C27.3315 15.5462 27.0023 14.7513 26.4163 14.1653C25.8302 13.5792 25.0353 13.25 24.2065 13.25ZM9.83154 14.5H15.4565V20.125H9.83154V14.5ZM16.7065 20.125V14.5H24.2065C24.7038 14.5 25.1807 14.6975 25.5324 15.0492C25.884 15.4008 26.0815 15.8777 26.0815 16.375V20.125H16.7065Z" fill="#0ACEEC"/>
</g>
<defs>
<clipPath id="clip0_1027_14281">
<rect width="20" height="20" fill="white" transform="translate(7.95654 7.625)"/>
</clipPath>
</defs>
</svg>
