<svg width="32" height="32" viewBox="0 0 32 32" fill="none" xmlns="http://www.w3.org/2000/svg">
<circle cx="16" cy="16" r="16" fill="#282C38"/>
<path d="M22.244 13.4893L18.5107 9.756C18.4611 9.70649 18.4023 9.66723 18.3375 9.64046C18.2728 9.61369 18.2034 9.59995 18.1333 9.6H11.7333C11.4504 9.6 11.1791 9.71238 10.9791 9.91242C10.779 10.1125 10.6667 10.3838 10.6667 10.6667V22.4C10.6667 22.6829 10.779 22.9542 10.9791 23.1542C11.1791 23.3543 11.4504 23.4667 11.7333 23.4667H21.3333C21.6162 23.4667 21.8875 23.3543 22.0876 23.1542C22.2876 22.9542 22.4 22.6829 22.4 22.4V13.8667C22.4001 13.7966 22.3863 13.7272 22.3595 13.6625C22.3328 13.5977 22.2935 13.5389 22.244 13.4893ZM18.6667 11.4207L20.5793 13.3333H18.6667V11.4207ZM21.3333 22.4H11.7333V10.6667H17.6V13.8667C17.6 14.0081 17.6562 14.1438 17.7562 14.2438C17.8562 14.3438 17.9919 14.4 18.1333 14.4H21.3333V22.4Z" fill="#B2B9CD"/>
</svg>
