<svg width="20" height="20" viewBox="0 0 20 20" fill="none" xmlns="http://www.w3.org/2000/svg">
<g id="trash">
<g id="icon">
<path d="M8.33342 8.12496C8.79365 8.12496 9.16675 8.49806 9.16675 8.95829V13.9583C9.16675 14.4185 8.79365 14.7916 8.33342 14.7916C7.87318 14.7916 7.50008 14.4185 7.50008 13.9583V8.95829C7.50008 8.49806 7.87318 8.12496 8.33342 8.12496Z" fill="#F93440"/>
<path d="M12.5001 8.95829C12.5001 8.49806 12.127 8.12496 11.6667 8.12496C11.2065 8.12496 10.8334 8.49806 10.8334 8.95829V13.9583C10.8334 14.4185 11.2065 14.7916 11.6667 14.7916C12.127 14.7916 12.5001 14.4185 12.5001 13.9583V8.95829Z" fill="#F93440"/>
<path fill-rule="evenodd" clip-rule="evenodd" d="M15.0001 4.99996V4.16663C15.0001 2.78591 13.8808 1.66663 12.5001 1.66663H7.50008C6.11937 1.66663 5.00008 2.78591 5.00008 4.16663V4.99996H3.75008C3.28984 4.99996 2.91675 5.37306 2.91675 5.83329C2.91675 6.29353 3.28984 6.66663 3.75008 6.66663H4.16675V15.8333C4.16675 17.214 5.28604 18.3333 6.66675 18.3333H13.3334C14.7141 18.3333 15.8334 17.214 15.8334 15.8333V6.66663H16.2501C16.7103 6.66663 17.0834 6.29353 17.0834 5.83329C17.0834 5.37306 16.7103 4.99996 16.2501 4.99996H15.0001ZM12.5001 3.33329H7.50008C7.03984 3.33329 6.66675 3.70639 6.66675 4.16663V4.99996H13.3334V4.16663C13.3334 3.70639 12.9603 3.33329 12.5001 3.33329ZM14.1667 6.66663H5.83341V15.8333C5.83341 16.2935 6.20651 16.6666 6.66675 16.6666H13.3334C13.7937 16.6666 14.1667 16.2935 14.1667 15.8333V6.66663Z" fill="#F93440"/>
</g>
</g>
</svg>
